<?xml version="1.0" encoding="utf-8"?>
<!-- Generator: Adobe Illustrator 26.5.0, SVG Export Plug-In . SVG Version: 6.00 Build 0)  -->
<svg version="1.1" id="Layer_1" xmlns="http://www.w3.org/2000/svg" xmlns:xlink="http://www.w3.org/1999/xlink" x="0px" y="0px"
	 viewBox="0 0 954 335" style="enable-background:new 0 0 954 335;" xml:space="preserve">
<style type="text/css">
	.st0{enable-background:new    ;}
	.st1{fill:#FFFFFF;}
</style>
<g class="st0">
	<path class="st1" d="M28.2,331.7H17.9v-60.4h13.9c3.8,15.9,9.2,27.6,16.3,34.9s16.3,11,27.6,11c8.2,0,14.6-1.7,19.1-5.1
		s6.8-8.1,6.8-14.1c0-6.2-2.8-12.2-8.3-18.1s-14.5-12.1-26.9-18.8C49.6,252,37.5,243,30.2,234s-11-19.1-11-30.4
		c0-7.3,1.4-14.1,4.1-20.4c2.8-6.3,6.5-11.8,11.3-16.4s10.5-8.2,17.1-10.8c6.6-2.5,13.8-3.8,21.6-3.8c6.9,0,13.7,1,20.4,3
		s12.7,4.8,17.8,8.3l6-8h8.6v50.1h-12.9c-5.1-12.6-10.3-21.7-15.8-27.2c-5.4-5.5-12-8.3-19.8-8.3c-6.2,0-11.1,1.7-14.8,5
		s-5.5,7.8-5.5,13.3c0,6.2,2.7,12.1,8.1,17.6s14.4,11.6,27.1,18.3c8.9,4.9,16.5,9.6,22.9,14.3c6.4,4.6,11.6,9.4,15.6,14.1
		c4,4.8,6.9,9.7,8.8,14.9c1.9,5.2,2.8,10.8,2.8,16.8c0,7.8-1.4,14.7-4.3,20.9c-2.9,6.2-7,11.5-12.3,15.9s-11.7,7.9-19.1,10.3
		s-15.7,3.7-24.7,3.7c-9.5,0-18.4-1.3-26.6-3.8s-14.9-6.3-20.3-11.1L28.2,331.7z"/>
	<path class="st1" d="M240.4,276.9c0,9.3,0.2,16.6,0.7,21.9c0.4,5.3,1.7,9.4,3.7,12.1c2,2.8,4.9,4.6,8.6,5.5c3.8,0.9,9,1.6,15.6,2
		v13.3H164v-13.3c6.6-0.4,12-1.1,15.9-2c4-0.9,7-2.7,9-5.3c2-2.7,3.3-6.5,4-11.5s1-11.7,1-20.1v-41.2c0-12.6-0.2-23.1-0.5-31.5
		s-0.9-14.2-1.8-17.3c-0.7-2.9-1.5-5.1-2.5-6.8s-2.5-3-4.6-4s-4.8-1.7-8.1-2s-7.6-0.5-12.9-0.5V165l64.1-12.6l4,28.9h2
		c9.3-10.4,18.6-17.8,28.1-22.2c9.4-4.4,20.3-6.6,32.7-6.6c14.6,0,26.7,2.5,36.2,7.6s16.7,12.4,21.6,21.9h1.3
		c8-9.3,17.5-16.5,28.6-21.7s22.9-7.8,35.5-7.8c13.3,0,24.8,1.7,34.7,5c9.8,3.3,17.5,8.1,23.1,14.3c4.4,5.1,7.7,11.7,9.8,19.9
		c2.1,8.2,3.2,19.6,3.2,34.2V277c0,9.1,0.3,16.3,0.8,21.6c0.5,5.3,1.8,9.4,3.8,12.3s4.9,4.8,8.6,5.6c3.8,0.9,9,1.6,15.6,2v13.3H412
		v-13.3c6.6-0.2,11.9-0.8,15.8-1.8s6.9-2.9,9-5.6c2.1-2.8,3.4-6.6,4-11.5c0.5-4.9,0.8-11.5,0.8-19.9V236c0-11.5-0.7-21.2-2-29.2
		s-3.4-14.4-6.3-19.3c-2.9-4.9-6.7-8.4-11.5-10.5s-10.6-3.2-17.4-3.2c-7.8,0-14.1,1.9-19.1,5.6c-5,3.8-9.1,8.6-12.5,14.6
		c-5.8,10.4-8.6,23.4-8.6,38.8v43.8c0,9.1,0.2,16.3,0.7,21.6c0.4,5.3,1.7,9.4,3.7,12.3s4.9,4.8,8.8,5.6c3.9,0.9,9.2,1.6,16.1,2v13.3
		H288.2v-13.3c6.6-0.4,11.9-1.1,15.8-2s6.9-2.7,9-5.3c2.1-2.7,3.4-6.5,4-11.5c0.5-5,0.8-11.7,0.8-20.1V236c0-11.5-0.7-21.2-2-29.2
		s-3.5-14.4-6.5-19.3s-6.9-8.4-11.8-10.5s-11-3.2-18.3-3.2s-13.3,1.8-18.1,5.3s-8.7,8.3-11.8,14.3c-2.9,5.3-5.1,11.4-6.6,18.3
		c-1.6,6.9-2.3,13.9-2.3,21.2V276.9L240.4,276.9z"/>
	<path class="st1" d="M607.2,277.2c0,8.9,0.3,15.9,1,21.2c0.7,5.3,2,9.4,4,12.3s4.9,4.8,8.6,5.8c3.8,1,8.8,1.6,15.3,1.8v13.3H531.5
		v-13.3c6.2-0.2,11.2-0.9,15.1-2.2c3.9-1.2,6.9-3.2,9-6s3.5-6.6,4.3-11.6s1.2-11.3,1.2-19.1v-40.8c0-12.8-0.2-23.4-0.7-31.7
		c-0.4-8.3-1-14-1.7-17.1c-1.1-5.5-3.6-9.2-7.5-11s-10.9-2.7-21.1-2.7V165l77-12.6L607.2,277.2L607.2,277.2z M558.4,82
		c0-7.3,2.5-13.4,7.5-18.4s11-7.5,18.1-7.5c7.3,0,13.4,2.5,18.4,7.5s7.5,11.1,7.5,18.4c0,7.1-2.5,13.1-7.5,18.1s-11.1,7.5-18.4,7.5
		c-7.1,0-13.1-2.5-18.1-7.5S558.4,89.1,558.4,82z"/>
	<path class="st1" d="M723.7,277.2c0,8.9,0.3,15.9,1,21.2c0.7,5.3,2,9.4,4,12.3s4.9,4.8,8.6,5.8c3.8,1,8.8,1.6,15.3,1.8v13.3H648
		v-13.3c6.2-0.2,11.2-0.9,15.1-2.2c3.9-1.2,6.9-3.2,9-6s3.5-6.6,4.3-11.6s1.2-11.3,1.2-19.1V142.3c0-12.8-0.2-23.4-0.7-31.7
		c-0.4-8.3-1-14-1.7-17.1c-1.1-5.5-3.6-9.2-7.5-11s-10.9-2.7-21.1-2.7V68.5l77-12.6L723.7,277.2L723.7,277.2z"/>
	<path class="st1" d="M938.9,300.8c-20.1,22.8-45.3,34.2-75.4,34.2c-13.7,0-26.2-2.2-37.3-6.5c-11.2-4.3-20.8-10.4-28.7-18.3
		c-8-7.9-14.2-17.2-18.6-28.1c-4.4-10.8-6.6-22.9-6.6-36.2c0-13.7,2.3-26.3,7-37.7c4.6-11.4,11.2-21.2,19.8-29.5
		c8.5-8.3,18.6-14.8,30.2-19.4s24.4-7,38.3-7c23.5,0,41.7,6.3,54.8,18.9c13.1,12.6,19.6,30.3,19.6,53.1c0,3.5-0.6,5.7-1.7,6.5
		s-4.2,1.2-9.3,1.2H824c-0.9,2-1.3,5.6-1.3,11c0,21.7,4.7,38.8,14.1,51.5c9.4,12.6,22.2,18.9,38.3,18.9c9.3,0,18.5-2.1,27.7-6.3
		c9.2-4.2,18.1-10.2,26.7-17.9L938.9,300.8z M874.5,213.5c8.8,0,14.6-0.5,17.1-1.5s3.8-3.4,3.8-7.1c0-9.7-2.8-17.7-8.3-23.9
		s-12.5-9.3-20.9-9.3c-9.5,0-18,3.9-25.4,11.8s-12.2,17.9-14.4,30H874.5z"/>
</g>
<g class="st0">
	<path class="st1" d="M220.8,109.4c0,11-2.6,19.3-7.9,25.2c-5.3,5.9-13,8.7-22.9,8.7c-6.7,0-12.1-1.3-15.9-3.7
		c-3.8-2.5-5.7-5.7-5.7-9.2c0-2.2,0.8-3.9,2.2-5.1s3-1.7,4.9-1.7c2.5,0,4.3,0.7,5.5,2.1c1.2,1.3,2.3,2.8,3.3,4.5
		c1,1.6,2.1,3,3.3,4.5c1.2,1.3,2.9,2.1,5.3,2.1c3.3,0,5.7-1.3,7.3-3.8s2.5-7,2.5-13.2V71.3c0-4.9-0.1-8.7-0.3-11.8
		c-0.2-3-0.4-5.2-0.8-6.3c-0.4-2.1-1.4-3.4-2.9-4.1c-1.5-0.8-4.2-1.1-8.4-1.1v-4.5l30.5-5L220.8,109.4L220.8,109.4z M201.4,10.2
		c0-2.9,1-5.3,2.9-7.3c2-2,4.3-2.9,7.2-2.9s5.3,1,7.3,2.9c2,2,2.9,4.5,2.9,7.3s-1,5.2-2.9,7.2c-2,2-4.5,2.9-7.3,2.9s-5.2-1-7.2-2.9
		C202.4,15.4,201.4,13,201.4,10.2z"/>
	<path class="st1" d="M293.2,61c0-3.5-0.1-6.3-0.2-8.4c-0.2-2.1-0.7-3.7-1.4-4.8s-2-1.8-3.5-2.2s-3.7-0.8-6.3-1v-5.2h29.7v39.9
		c0,5.3,0.1,9.5,0.2,12.6c0.2,3,0.3,5.2,0.8,6.7c0.2,1.1,0.5,2.1,1,2.7c0.3,0.7,1,1.2,1.7,1.6c0.8,0.4,1.8,0.7,3.3,0.8
		c1.3,0.2,3.2,0.2,5.3,0.2v5.1l-26.2,1.6L296.1,99h-0.5c-2.3,3.7-5.5,6.5-9.6,8.6s-8.7,3-13.8,3c-9.5,0-16.5-3.3-21.5-10
		c-3.7-5.1-5.7-12.3-5.7-21.7V61.2c0-3.6-0.1-6.4-0.2-8.5c-0.2-2.1-0.7-3.7-1.3-4.7c-0.8-1-1.8-1.7-3.4-2.2c-1.5-0.4-3.6-0.8-6.2-1
		v-5.2h29.6v37.3c0,8.8,1.1,15.3,3.3,19.2c2.2,4,5.7,6,10.5,6c5.2,0,9.1-2.4,12-7.2c2.8-4.6,4.2-11.3,4.2-20.1V61H293.2z"/>
	<path class="st1" d="M336.4,109.2h-4V85.3h5.5c1.5,6.3,3.7,11,6.4,13.8c2.8,2.9,6.4,4.3,11,4.3c3.3,0,5.8-0.7,7.6-2.1
		c1.7-1.3,2.7-3.3,2.7-5.7c0-2.5-1.1-4.9-3.3-7.2s-5.8-4.9-10.7-7.5c-6.7-3.6-11.4-7.2-14.3-10.7c-2.9-3.6-4.3-7.6-4.3-12.1
		c0-2.9,0.5-5.7,1.6-8c1.1-2.5,2.5-4.7,4.5-6.5c1.8-1.8,4.1-3.3,6.7-4.2c2.6-1,5.5-1.5,8.6-1.5c2.7,0,5.4,0.4,8,1.2
		c2.7,0.8,5,1.8,7.1,3.3l2.4-3.2h3.4v19.9h-5.1c-2.1-5-4-8.6-6.3-10.8c-2.2-2.2-4.8-3.3-7.8-3.3c-2.5,0-4.5,0.7-5.9,2
		s-2.2,3-2.2,5.2c0,2.5,1.1,4.8,3.3,7c2.2,2.2,5.7,4.6,10.7,7.2c3.5,2,6.5,3.8,9.1,5.7c2.5,1.8,4.6,3.7,6.2,5.7
		c1.6,1.8,2.7,3.8,3.5,6c0.8,2.1,1.1,4.2,1.1,6.6c0,3-0.5,5.9-1.7,8.4c-1.1,2.5-2.8,4.6-4.9,6.3c-2.2,1.7-4.7,3.2-7.6,4
		c-2.9,1-6.2,1.4-9.8,1.4c-3.7,0-7.3-0.5-10.5-1.5c-3.3-1-6-2.5-8-4.5L336.4,109.2z"/>
	<path class="st1" d="M389.9,46.6v-6c5.2-1.5,9.7-3.7,13.3-6.7c3.6-3,6.2-6.5,7.9-10.4h6.7v16h15.1v7.2h-15.1v40.4
		c0,5.4,0.5,9.3,1.7,11.5c1.2,2.3,3.2,3.4,6,3.4c3.4,0,6-1.6,7.7-4.8l2.8,3.8c-2.5,6.2-8.3,9.3-17.4,9.3c-6,0-10.8-1.4-14.1-4.2
		s-5.1-6.7-5.1-11.8V46.6H389.9z"/>
</g>
</svg>
