<?xml version="1.0" encoding="utf-8"?>
<!-- Generator: Adobe Illustrator 26.5.0, SVG Export Plug-In . SVG Version: 6.00 Build 0)  -->
<svg version="1.1" id="Layer_1" xmlns="http://www.w3.org/2000/svg" xmlns:xlink="http://www.w3.org/1999/xlink" x="0px" y="0px"
	 viewBox="0 0 275.4 113.5" style="enable-background:new 0 0 275.4 113.5;" xml:space="preserve">
<style type="text/css">
	.st0{fill:#DEA3A6;}
</style>
<g>
	<g>
		<g>
			<polygon class="st0" points="273.6,36 270.7,36 270.7,3.4 199.5,3.4 199.5,0.4 273.6,0.4 			"/>
		</g>
		<g>
			<polygon class="st0" points="75.9,113.1 1.8,113.1 1.8,77.5 4.8,77.5 4.8,110.2 75.9,110.2 			"/>
		</g>
	</g>
	<g>
		<g>
			<path class="st0" d="M38.4,52.5v-30h13.2c1.4,0,2.7,0.3,3.8,0.9c1.2,0.6,2.2,1.3,3,2.3c0.8,0.9,1.5,2,2,3.2
				c0.5,1.2,0.7,2.4,0.7,3.6c0,1.9-0.5,3.7-1.5,5.3c-1,1.6-2.3,2.7-3.9,3.4l6.8,11.3h-6.5l-6.1-10h-5.7v10H38.4z M44.3,37.4h7.3
				c0.5,0,1-0.1,1.5-0.4c0.5-0.3,0.9-0.6,1.2-1c0.3-0.4,0.6-0.9,0.8-1.5c0.2-0.6,0.3-1.2,0.3-1.9c0-0.7-0.1-1.4-0.3-1.9
				c-0.2-0.6-0.5-1.1-0.9-1.5c-0.4-0.4-0.8-0.8-1.3-1c-0.5-0.2-1-0.4-1.5-0.4h-7V37.4z"/>
		</g>
		<g>
			<path class="st0" d="M75.6,53c-1.8,0-3.4-0.3-4.8-0.9c-1.4-0.6-2.7-1.4-3.7-2.5c-1-1-1.8-2.2-2.3-3.6c-0.5-1.4-0.8-2.8-0.8-4.3
				c0-1.6,0.3-3.1,0.8-4.5c0.5-1.4,1.3-2.6,2.3-3.7c1-1.1,2.2-1.9,3.7-2.5c1.4-0.6,3.1-0.9,4.9-0.9c1.8,0,3.4,0.3,4.8,0.9
				c1.4,0.6,2.6,1.4,3.6,2.5c1,1,1.8,2.3,2.3,3.6c0.5,1.4,0.8,2.8,0.8,4.3c0,0.4,0,0.7,0,1.1c0,0.3,0,0.6-0.1,0.8H69.9
				c0.1,0.9,0.3,1.6,0.6,2.3c0.3,0.7,0.8,1.3,1.3,1.7c0.5,0.5,1.1,0.8,1.8,1.1c0.7,0.3,1.4,0.4,2.1,0.4c1.1,0,2.2-0.3,3.2-0.8
				c1-0.5,1.7-1.3,2-2.2l4.9,1.3c-0.8,1.7-2.1,3.1-3.9,4.2C80.2,52.4,78,53,75.6,53z M81.3,39.6c-0.1-1.7-0.8-3-1.8-4
				c-1.1-1-2.4-1.5-3.9-1.5c-0.8,0-1.5,0.1-2.1,0.4c-0.7,0.3-1.2,0.6-1.8,1.1c-0.5,0.5-0.9,1.1-1.2,1.7c-0.3,0.7-0.5,1.4-0.6,2.2
				H81.3z"/>
		</g>
		<g>
			<path class="st0" d="M96.6,53c-1.1,0-2.1-0.2-3-0.5c-0.9-0.4-1.7-0.8-2.4-1.5c-0.7-0.6-1.2-1.4-1.6-2.2c-0.4-0.8-0.6-1.8-0.6-2.8
				c0-1,0.2-2,0.7-2.9c0.5-0.9,1.1-1.6,1.9-2.3c0.8-0.6,1.8-1.1,3-1.5c1.2-0.4,2.4-0.5,3.8-0.5c1,0,1.9,0.1,2.9,0.3
				c0.9,0.2,1.8,0.4,2.5,0.7v-1.3c0-1.5-0.4-2.6-1.2-3.4c-0.8-0.8-2.1-1.2-3.7-1.2c-1.2,0-2.3,0.2-3.5,0.6c-1.1,0.4-2.3,1-3.5,1.9
				l-1.7-3.6c2.8-1.9,5.9-2.8,9.2-2.8c3.2,0,5.6,0.8,7.4,2.3c1.8,1.6,2.6,3.8,2.6,6.8V46c0,0.6,0.1,1,0.3,1.3c0.2,0.3,0.6,0.4,1,0.4
				v4.8c-1,0.2-1.8,0.3-2.5,0.3c-1.1,0-1.9-0.2-2.5-0.7c-0.6-0.5-0.9-1.1-1.1-1.9l-0.1-1.2c-1,1.3-2.2,2.3-3.6,3
				C99.7,52.6,98.2,53,96.6,53z M98.2,48.8c1,0,1.9-0.2,2.7-0.5c0.9-0.3,1.5-0.8,2-1.4c0.6-0.5,0.9-1,0.9-1.6v-2.5
				c-0.7-0.3-1.4-0.5-2.2-0.6c-0.8-0.2-1.5-0.2-2.3-0.2c-1.5,0-2.7,0.3-3.6,1c-0.9,0.7-1.4,1.5-1.4,2.5c0,1,0.4,1.8,1.1,2.4
				C96.2,48.5,97.1,48.8,98.2,48.8z"/>
		</g>
		<g>
			<path class="st0" d="M114.7,21.7h5.7v23.7c0,0.8,0.2,1.4,0.6,1.9c0.4,0.5,1,0.7,1.7,0.7c0.3,0,0.7-0.1,1.1-0.2
				c0.4-0.1,0.8-0.3,1.2-0.4l0.8,4.3c-0.8,0.4-1.6,0.6-2.7,0.8c-1,0.2-1.9,0.3-2.7,0.3c-1.8,0-3.1-0.5-4.1-1.4c-1-0.9-1.5-2.3-1.5-4
				V21.7z"/>
		</g>
		<g>
			<path class="st0" d="M146.6,30.4c-0.2-0.2-0.6-0.5-1.1-0.8c-0.5-0.3-1.2-0.7-1.9-1c-0.7-0.3-1.6-0.6-2.4-0.8
				c-0.9-0.2-1.8-0.3-2.7-0.3c-1.6,0-2.8,0.3-3.6,0.9c-0.8,0.6-1.2,1.4-1.2,2.5c0,0.6,0.1,1.1,0.4,1.5c0.3,0.4,0.7,0.8,1.3,1.1
				c0.6,0.3,1.3,0.6,2.1,0.8c0.9,0.3,1.8,0.5,3,0.8c1.5,0.4,2.8,0.8,4,1.3c1.2,0.5,2.2,1,3,1.7c0.8,0.7,1.5,1.5,1.9,2.4
				c0.4,0.9,0.7,2.1,0.7,3.5c0,1.6-0.3,3-0.9,4.1c-0.6,1.1-1.4,2.1-2.4,2.8c-1,0.7-2.2,1.2-3.5,1.5c-1.3,0.3-2.7,0.5-4.2,0.5
				c-2.3,0-4.5-0.3-6.7-1c-2.2-0.7-4.2-1.6-5.9-2.9l2.6-5c0.3,0.3,0.7,0.6,1.4,1c0.7,0.4,1.4,0.8,2.3,1.2c0.9,0.4,1.9,0.8,3,1
				c1.1,0.3,2.2,0.4,3.4,0.4c3.2,0,4.8-1,4.8-3.1c0-0.6-0.2-1.2-0.5-1.6c-0.4-0.4-0.9-0.8-1.6-1.2c-0.7-0.3-1.5-0.6-2.4-0.9
				c-1-0.3-2-0.6-3.2-0.9c-1.4-0.4-2.7-0.8-3.7-1.3c-1.1-0.5-1.9-1-2.6-1.6c-0.7-0.6-1.2-1.4-1.6-2.2c-0.4-0.8-0.5-1.8-0.5-3
				c0-1.5,0.3-2.9,0.8-4c0.6-1.2,1.3-2.2,2.3-3c1-0.8,2.2-1.4,3.5-1.8c1.3-0.4,2.7-0.6,4.3-0.6c2.1,0,4,0.3,5.8,1
				c1.8,0.7,3.3,1.4,4.6,2.3L146.6,30.4z"/>
		</g>
		<g>
			<path class="st0" d="M188.4,52.5h-5.7V40.1c0-1.8-0.3-3.1-0.9-3.9c-0.6-0.8-1.4-1.2-2.5-1.2c-1.1,0-2.2,0.4-3.2,1.3
				c-1,0.9-1.7,2-2.1,3.4v12.9h-5.7V40.1c0-1.8-0.3-3.1-0.9-3.9c-0.6-0.8-1.4-1.2-2.5-1.2c-1.1,0-2.1,0.4-3.1,1.3
				c-1,0.8-1.7,2-2.1,3.3v12.9H154V30.4h5.1v4.1c0.8-1.4,1.9-2.5,3.4-3.3c1.4-0.8,3-1.2,4.9-1.2c1.9,0,3.3,0.5,4.3,1.3
				c1,0.9,1.7,2,1.9,3.3c0.9-1.5,2-2.7,3.4-3.5c1.4-0.8,3-1.2,4.7-1.2c1.4,0,2.5,0.3,3.3,0.8c0.9,0.5,1.5,1.2,2,2
				c0.5,0.8,0.8,1.7,1,2.8c0.2,1,0.3,2.1,0.3,3.2V52.5z"/>
		</g>
		<g>
			<path class="st0" d="M193.3,27.3v-5.6h5.7v5.6H193.3z M193.3,52.5V30.4h5.7v22.1H193.3z"/>
		</g>
		<g>
			<path class="st0" d="M204,21.7h5.7v23.7c0,0.8,0.2,1.4,0.6,1.9c0.4,0.5,1,0.7,1.7,0.7c0.3,0,0.7-0.1,1.1-0.2
				c0.4-0.1,0.8-0.3,1.2-0.4l0.8,4.3c-0.8,0.4-1.6,0.6-2.7,0.8c-1,0.2-1.9,0.3-2.7,0.3c-1.8,0-3.1-0.5-4.1-1.4c-1-0.9-1.5-2.3-1.5-4
				V21.7z"/>
		</g>
		<g>
			<path class="st0" d="M227.7,53c-1.8,0-3.4-0.3-4.8-0.9c-1.4-0.6-2.7-1.4-3.7-2.5c-1-1-1.8-2.2-2.3-3.6c-0.5-1.4-0.8-2.8-0.8-4.3
				c0-1.6,0.3-3.1,0.8-4.5c0.5-1.4,1.3-2.6,2.3-3.7c1-1.1,2.2-1.9,3.7-2.5c1.4-0.6,3.1-0.9,4.9-0.9c1.8,0,3.4,0.3,4.8,0.9
				c1.4,0.6,2.6,1.4,3.6,2.5c1,1,1.8,2.3,2.3,3.6c0.5,1.4,0.8,2.8,0.8,4.3c0,0.4,0,0.7,0,1.1c0,0.3,0,0.6-0.1,0.8H222
				c0.1,0.9,0.3,1.6,0.6,2.3c0.3,0.7,0.8,1.3,1.3,1.7c0.5,0.5,1.1,0.8,1.8,1.1c0.7,0.3,1.4,0.4,2.1,0.4c1.1,0,2.2-0.3,3.2-0.8
				c1-0.5,1.7-1.3,2-2.2l4.9,1.3c-0.8,1.7-2.1,3.1-3.9,4.2C232.3,52.4,230.1,53,227.7,53z M233.4,39.6c-0.1-1.7-0.8-3-1.8-4
				c-1.1-1-2.4-1.5-3.9-1.5c-0.8,0-1.5,0.1-2.1,0.4c-0.7,0.3-1.2,0.6-1.8,1.1c-0.5,0.5-0.9,1.1-1.2,1.7c-0.3,0.7-0.5,1.4-0.6,2.2
				H233.4z"/>
		</g>
		<g>
			<path class="st0" d="M84.2,68.6c-0.2-0.2-0.6-0.5-1.1-0.8c-0.5-0.3-1.2-0.7-1.9-1c-0.7-0.3-1.6-0.6-2.4-0.8
				c-0.9-0.2-1.8-0.3-2.7-0.3c-1.6,0-2.8,0.3-3.6,0.9c-0.8,0.6-1.2,1.4-1.2,2.5c0,0.6,0.1,1.1,0.4,1.5c0.3,0.4,0.7,0.8,1.3,1.1
				c0.6,0.3,1.3,0.6,2.1,0.8c0.9,0.3,1.8,0.5,3,0.8c1.5,0.4,2.8,0.8,4,1.3c1.2,0.5,2.2,1,3,1.7c0.8,0.7,1.5,1.5,1.9,2.4
				c0.4,0.9,0.7,2.1,0.7,3.5c0,1.6-0.3,3-0.9,4.1c-0.6,1.1-1.4,2.1-2.4,2.8c-1,0.7-2.2,1.2-3.5,1.5c-1.3,0.3-2.7,0.5-4.2,0.5
				c-2.3,0-4.5-0.3-6.7-1c-2.2-0.7-4.2-1.6-5.9-2.9l2.6-5c0.3,0.3,0.7,0.6,1.4,1c0.7,0.4,1.4,0.8,2.3,1.2c0.9,0.4,1.9,0.8,3,1
				c1.1,0.3,2.2,0.4,3.4,0.4c3.2,0,4.8-1,4.8-3.1c0-0.6-0.2-1.2-0.5-1.6c-0.4-0.4-0.9-0.8-1.6-1.2c-0.7-0.3-1.5-0.6-2.4-0.9
				c-1-0.3-2-0.6-3.2-0.9c-1.4-0.4-2.7-0.8-3.7-1.3c-1.1-0.5-1.9-1-2.6-1.6c-0.7-0.6-1.2-1.4-1.6-2.2c-0.4-0.8-0.5-1.8-0.5-3
				c0-1.5,0.3-2.9,0.8-4c0.6-1.2,1.3-2.2,2.3-3c1-0.8,2.2-1.4,3.5-1.8c1.3-0.4,2.7-0.6,4.3-0.6c2.1,0,4,0.3,5.8,1
				c1.8,0.7,3.3,1.4,4.6,2.3L84.2,68.6z"/>
		</g>
		<g>
			<path class="st0" d="M91.4,95c0.5,0.1,0.9,0.2,1.4,0.3c0.4,0.1,0.8,0.1,1.1,0.1c0.4,0,0.7-0.1,1-0.2c0.3-0.1,0.6-0.4,0.8-0.7
				c0.3-0.4,0.5-0.8,0.8-1.5c0.3-0.6,0.5-1.4,0.8-2.3l-8.7-22.1h5.8l6,17.2l5.3-17.2h5.3l-9.3,26.5c-0.5,1.5-1.4,2.8-2.7,3.8
				c-1.3,1-2.9,1.5-4.8,1.5c-0.5,0-0.9,0-1.4-0.1c-0.5-0.1-0.9-0.2-1.5-0.4V95z"/>
		</g>
		<g>
			<path class="st0" d="M122,91.1c-1.9,0-3.7-0.3-5.4-0.9c-1.8-0.6-3.3-1.4-4.6-2.5l2.1-3.5c1.4,1,2.7,1.7,3.9,2.2
				c1.3,0.5,2.6,0.7,3.8,0.7c1.1,0,2-0.2,2.7-0.6c0.6-0.4,1-1,1-1.8c0-0.8-0.4-1.4-1.1-1.7c-0.8-0.4-2-0.8-3.7-1.3
				c-1.4-0.4-2.7-0.8-3.7-1.1c-1-0.4-1.8-0.8-2.4-1.2c-0.6-0.5-1.1-1-1.4-1.6c-0.3-0.6-0.4-1.3-0.4-2.2c0-1.1,0.2-2.1,0.7-3
				c0.4-0.9,1-1.7,1.8-2.3c0.8-0.6,1.7-1.1,2.8-1.5c1.1-0.3,2.2-0.5,3.4-0.5c1.7,0,3.2,0.2,4.7,0.7c1.4,0.5,2.8,1.3,4,2.3l-2.3,3.4
				c-1.1-0.8-2.2-1.5-3.3-1.9c-1.1-0.4-2.1-0.6-3.1-0.6c-1,0-1.8,0.2-2.4,0.6c-0.6,0.4-1,1-1,1.9c0,0.4,0.1,0.7,0.2,1
				c0.2,0.3,0.4,0.5,0.7,0.7c0.3,0.2,0.8,0.4,1.3,0.6c0.5,0.2,1.2,0.4,2,0.6c1.5,0.4,2.8,0.8,3.9,1.2c1.1,0.4,2,0.8,2.7,1.3
				c0.7,0.5,1.2,1.1,1.5,1.8c0.3,0.7,0.5,1.5,0.5,2.4c0,2.2-0.8,3.9-2.4,5.1C126.9,90.5,124.7,91.1,122,91.1z"/>
		</g>
		<g>
			<path class="st0" d="M147.8,89.6c-0.8,0.3-1.7,0.7-2.8,1c-1.1,0.3-2.3,0.5-3.5,0.5c-0.8,0-1.5-0.1-2.2-0.3
				c-0.7-0.2-1.3-0.5-1.8-0.9c-0.5-0.4-0.9-1-1.2-1.7c-0.3-0.7-0.5-1.5-0.5-2.5V73h-2.9v-4.3h2.9v-7.2h5.7v7.2h4.6V73h-4.6v10.8
				c0,0.8,0.2,1.3,0.6,1.7c0.4,0.3,0.9,0.5,1.5,0.5s1.2-0.1,1.7-0.3c0.6-0.2,1-0.4,1.3-0.5L147.8,89.6z"/>
		</g>
		<g>
			<path class="st0" d="M160.5,91.1c-1.8,0-3.4-0.3-4.8-0.9c-1.4-0.6-2.7-1.4-3.7-2.5c-1-1-1.8-2.2-2.3-3.6
				c-0.5-1.4-0.8-2.8-0.8-4.3c0-1.6,0.3-3.1,0.8-4.5c0.5-1.4,1.3-2.6,2.3-3.7c1-1.1,2.2-1.9,3.7-2.5c1.4-0.6,3.1-0.9,4.9-0.9
				c1.8,0,3.4,0.3,4.8,0.9c1.4,0.6,2.6,1.4,3.6,2.5c1,1,1.8,2.3,2.3,3.6c0.5,1.4,0.8,2.8,0.8,4.3c0,0.4,0,0.7,0,1.1
				c0,0.3,0,0.6-0.1,0.8h-17.1c0.1,0.9,0.3,1.6,0.6,2.3c0.3,0.7,0.8,1.3,1.3,1.7c0.5,0.5,1.1,0.8,1.8,1.1c0.7,0.3,1.4,0.4,2.1,0.4
				c1.1,0,2.2-0.3,3.2-0.8c1-0.5,1.7-1.3,2-2.2l4.9,1.3c-0.8,1.7-2.1,3.1-3.9,4.2C165.1,90.6,162.9,91.1,160.5,91.1z M166.2,77.8
				c-0.1-1.7-0.8-3-1.8-4c-1.1-1-2.4-1.5-3.9-1.5c-0.8,0-1.5,0.1-2.1,0.4c-0.7,0.3-1.2,0.6-1.8,1.1c-0.5,0.5-0.9,1.1-1.2,1.7
				c-0.3,0.7-0.5,1.4-0.6,2.2H166.2z"/>
		</g>
		<g>
			<path class="st0" d="M209.8,90.7h-5.7V78.3c0-1.8-0.3-3.1-0.9-3.9c-0.6-0.8-1.4-1.2-2.5-1.2c-1.1,0-2.2,0.4-3.2,1.3
				c-1,0.9-1.7,2-2.1,3.4v12.9h-5.7V78.3c0-1.8-0.3-3.1-0.9-3.9c-0.6-0.8-1.4-1.2-2.5-1.2c-1.1,0-2.1,0.4-3.1,1.3
				c-1,0.8-1.7,2-2.1,3.3v12.9h-5.7V68.6h5.1v4.1c0.8-1.4,1.9-2.5,3.4-3.3c1.4-0.8,3-1.2,4.9-1.2c1.9,0,3.3,0.5,4.3,1.4
				c1,0.9,1.7,2,1.9,3.3c0.9-1.5,2-2.7,3.4-3.5c1.4-0.8,3-1.2,4.7-1.2c1.4,0,2.5,0.3,3.3,0.8c0.9,0.5,1.5,1.2,2,2
				c0.5,0.8,0.8,1.7,1,2.8c0.2,1,0.3,2.1,0.3,3.2V90.7z"/>
		</g>
	</g>
</g>
</svg>
