<?xml version="1.0" encoding="utf-8"?>
<!-- Generator: Adobe Illustrator 26.5.0, SVG Export Plug-In . SVG Version: 6.00 Build 0)  -->
<svg version="1.1" id="Logo-Keva" xmlns="http://www.w3.org/2000/svg" xmlns:xlink="http://www.w3.org/1999/xlink" x="0px" y="0px"
	 viewBox="0 0 202.9 49.9" style="enable-background:new 0 0 202.9 49.9;" xml:space="preserve">
<style type="text/css">
	.st0{fill:#DEA3A6;}
</style>
<g>
	<path class="st0" d="M202.9,0c-28.8,4.2-63.8,6.7-101.4,6.7S28.8,4.2,0,0c28.5,7.3,63.5,11.5,101.4,11.5S174.4,7.3,202.9,0z"/>
	<path class="st0" d="M70.9,18.4v29.9c0,0.9,0.7,1.6,1.6,1.6h22.7c0.9,0,1.5-0.7,1.5-1.5c0,0,0,0,0,0v-3.2H76.5V36h19.1v-4.7H76.5
		v-8.2h20.1v-4.7H70.9z"/>
	<path class="st0" d="M129.3,18.4l-10.1,23.9l-10.1-23.9h-6.4l11.9,26.8h-2.9l-5.6,0v3.2c0,0.9,0.7,1.6,1.6,1.6h22.7
		c0.9,0,1.6-0.7,1.6-1.6l0-3.2h-8.5l11.9-26.8L129.3,18.4z"/>
	<path class="st0" d="M56.7,18.5L43.1,29.7V18.5h-5.4v25c0,0.9,0.7,1.6,1.6,1.6h3.8v-9.7l4.7-3.7L58,45h6.4L51.6,28.5l11.9-10H56.7z
		"/>
	<path class="st0" d="M153.1,24.1l4.5,9.9h-9.1L153.1,24.1z M150.4,18.4l-12.6,26.6h5.7l3-6.5h13.2l3,6.5h3.4c0.9,0,1.6-0.7,1.6-1.6
		c0-0.2-0.1-0.5-0.1-0.7l-11.5-24.4L150.4,18.4z"/>
</g>
</svg>
